HIERARCHY
ROOT SimulationBone
{
	OFFSET 0.000000 0.000000 0.000000
	CHANNELS 6 Xposition Yposition Zposition Zrotation Yrotation Xrotation 
	JOINT Hips
	{
		OFFSET 0.000000 0.000000 0.000000
		CHANNELS 6 Xposition Yposition Zposition Zrotation Yrotation Xrotation 
		JOINT LeftUpLeg
		{
			OFFSET 0.103458 1.857820 10.548502
			CHANNELS 3 Zrotation Yrotation Xrotation
			JOINT LeftLeg
			{
				OFFSET 43.500000 -0.000023 -0.000011
				CHANNELS 3 Zrotation Yrotation Xrotation
				JOINT LeftFoot
				{
					OFFSET 42.372192 0.000038 0.000002
					CHANNELS 3 Zrotation Yrotation Xrotation
					JOINT LeftToe
					{
						OFFSET 17.299992 -0.000004 0.000006
						CHANNELS 3 Zrotation Yrotation Xrotation
						End Site
						{
							OFFSET 0.000000 0.000000 0.000000
						}
					}
				}
			}
		}
		JOINT RightUpLeg
		{
			OFFSET 0.103461 1.857814 -10.548508
			CHANNELS 3 Zrotation Yrotation Xrotation
			JOINT RightLeg
			{
				OFFSET 43.500042 -0.000015 0.000008
				CHANNELS 3 Zrotation Yrotation Xrotation
				JOINT RightFoot
				{
					OFFSET 42.372253 0.000008 0.000006
					CHANNELS 3 Zrotation Yrotation Xrotation
					JOINT RightToe
					{
						OFFSET 17.299973 -0.000014 0.000011
						CHANNELS 3 Zrotation Yrotation Xrotation
						End Site
						{
							OFFSET 0.000000 0.000000 0.000000
						}
					}
				}
			}
		}
		JOINT Spine
		{
			OFFSET 6.901966 -2.603737 -0.000007
			CHANNELS 3 Zrotation Yrotation Xrotation
			JOINT Spine1
			{
				OFFSET 12.588102 0.000017 0.000001
				CHANNELS 3 Zrotation Yrotation Xrotation
				JOINT Spine2
				{
					OFFSET 12.343197 -0.000013 0.000000
					CHANNELS 3 Zrotation Yrotation Xrotation
					JOINT Neck
					{
						OFFSET 25.832905 -0.000008 0.000000
						CHANNELS 3 Zrotation Yrotation Xrotation
						JOINT Head
						{
							OFFSET 11.766610 0.000009 -0.000002
							CHANNELS 3 Zrotation Yrotation Xrotation
							End Site
							{
								OFFSET 0.000000 0.000000 0.000000
							}
						}
					}
					JOINT LeftShoulder
					{
						OFFSET 19.745903 -1.480377 6.000115
						CHANNELS 3 Zrotation Yrotation Xrotation
						JOINT LeftArm
						{
							OFFSET 11.284125 -0.000014 -0.000024
							CHANNELS 3 Zrotation Yrotation Xrotation
							JOINT LeftForeArm
							{
								OFFSET 33.000046 -0.000012 0.000029
								CHANNELS 3 Zrotation Yrotation Xrotation
								JOINT LeftHand
								{
									OFFSET 25.199989 0.000034 0.000012
									CHANNELS 3 Zrotation Yrotation Xrotation
									End Site
									{
										OFFSET 0.000000 0.000000 0.000000
									}
								}
							}
						}
					}
					JOINT RightShoulder
					{
						OFFSET 19.746098 -1.480362 -6.000071
						CHANNELS 3 Zrotation Yrotation Xrotation
						JOINT RightArm
						{
							OFFSET 11.284137 -0.000006 -0.000008
							CHANNELS 3 Zrotation Yrotation Xrotation
							JOINT RightForeArm
							{
								OFFSET 33.000095 0.000017 0.000000
								CHANNELS 3 Zrotation Yrotation Xrotation
								JOINT RightHand
								{
									OFFSET 25.199778 0.000144 0.000423
									CHANNELS 3 Zrotation Yrotation Xrotation
									End Site
									{
										OFFSET 0.000000 0.000000 0.000000
									}
								}
							}
						}
					}
				}
			}
		}
	}
}
MOTION
Frames: 13
Frame Time: 0.033333
-167.649909 0.000000 -4.663804 0.000000 -64.382451 0.000000 -17.225245 87.753227 -2.070697 70.992687 -2.116228 -177.050083 -176.293917 -9.203902 -175.774536 -53.372478 -2.512014 -4.244437 70.064162 0.051670 -9.198062 21.454563 0.003107 0.000012 122.512352 -2.090499 -174.002389 -40.135271 3.429773 9.059707 83.004147 -4.852445 7.391218 21.454553 -0.003089 0.000000 15.328007 1.486944 -2.378481 20.585965 3.373341 -4.455870 20.268346 3.346246 -4.476133 2.939916 -1.926409 5.965970 -30.846111 1.053401 5.448903 -148.218998 -75.578734 -33.933981 -16.486063 49.913510 -1.101485 -107.339510 0.059086 3.116213 -11.180906 -7.360406 38.016860 -171.330815 73.520252 10.343080 53.864767 -45.039736 -56.005150 -83.261775 5.508999 -2.393997 -2.955560 17.261187 -7.277874 
-164.917052 0.000000 2.248459 0.000000 -66.370769 0.000000 -15.584925 85.764259 -2.035618 73.356248 -1.780060 -177.064433 -174.470284 -7.084792 -171.706653 -68.321242 -3.130228 -5.365026 70.294401 0.488705 -10.514705 21.454562 0.003115 0.000017 127.868217 -3.439606 -174.304966 -33.799874 3.746361 10.865537 79.753230 -5.744345 8.344682 21.454553 -0.003095 -0.000002 15.157175 1.692195 -2.148712 20.247066 3.734249 -3.969686 19.929097 3.710076 -3.992155 3.347966 -2.793297 4.742552 -29.901981 0.533754 4.298250 -150.990962 -74.404679 -31.137927 -11.093827 52.292277 4.697227 -98.335873 -1.750022 2.842407 -12.005252 -8.134920 38.815658 -167.712276 71.910889 14.059577 46.759885 -49.259297 -46.113503 -83.814098 5.699999 -2.431386 -5.487107 15.638165 -9.926518 
-162.274610 0.000000 9.429445 0.000000 -68.290827 0.000000 -14.454482 83.327087 -2.135746 75.197714 -1.125283 -177.079320 -175.942285 -5.584712 -174.699191 -85.856024 1.210579 -6.053764 71.400844 1.410908 -8.978221 21.454560 0.003108 0.000013 130.104435 -3.900201 -169.211516 -42.509444 4.525150 9.705524 78.792584 -9.563230 -10.837649 21.454555 -0.003082 0.000001 14.631281 1.941651 -1.711421 19.206239 4.140407 -3.078130 18.887753 4.121606 -3.103099 5.384058 -4.034272 3.393394 -29.714615 -0.285174 3.177508 -151.984987 -73.387924 -30.147967 -4.841703 53.795407 14.342134 -88.971499 -5.433552 2.680890 -13.145730 -8.868773 38.859811 -165.698422 70.249384 16.140685 36.909670 -51.911336 -35.348848 -84.561492 5.587850 -2.456212 -7.214527 14.571452 -11.841897 
-159.723136 0.000000 16.863867 0.000000 -70.134817 0.000000 -13.529391 81.107079 -2.167092 77.328531 -0.523740 -178.710594 -179.498970 -5.306600 -179.536222 -102.559505 4.655165 -7.899307 73.015105 2.639558 -9.187892 21.454557 0.003107 0.000019 132.799805 -4.591994 -167.078148 -54.221744 4.141776 7.454321 89.291814 -6.807792 -10.502401 21.454551 -0.003092 0.000000 14.284600 2.029700 -0.859803 18.543308 4.170874 -1.383517 18.224398 4.162307 -1.408728 7.334308 -5.269874 1.986879 -29.794518 -1.034073 1.993205 -156.573986 -72.671013 -25.457035 2.198477 53.757728 25.345128 -80.164578 -10.560838 2.650732 -13.324309 -8.724822 37.379549 -166.560419 68.881918 15.257386 22.513357 -53.076406 -22.013490 -85.908938 5.265722 -2.492792 -9.358624 14.153734 -13.225526 
-157.263180 0.000000 24.536437 0.000000 -71.896452 0.000000 -12.682488 80.098557 -2.107509 79.289708 0.953956 178.839012 173.650197 -5.419600 177.997571 -116.064298 5.800293 -10.077183 75.394469 4.594766 -8.077099 21.454562 0.003111 0.000017 139.772213 -6.798792 -166.926722 -58.143993 4.370438 5.493264 96.645025 -4.760332 -10.611946 21.454557 -0.003095 -0.000001 14.152686 2.186720 0.123438 18.316853 4.326139 0.592482 17.997776 4.329516 0.566280 8.031987 -6.571975 1.010352 -29.496520 -1.427094 1.035483 -159.277949 -70.978096 -22.708004 7.696003 52.133263 34.217038 -71.117883 -13.855361 2.493973 -13.694395 -9.298649 32.680246 -171.465274 68.795865 10.187196 4.555150 -50.993506 -8.543492 -88.433335 4.304724 -2.536877 -9.801438 12.272842 -15.446247 
-154.895293 0.000000 32.431869 0.000000 -73.570980 0.000000 -12.279011 80.256233 -1.911479 79.963790 1.284762 176.872226 161.737486 -4.896895 177.100057 -124.297108 6.129202 -12.037150 77.497170 6.626746 -5.960185 21.454560 0.003116 0.000029 147.859102 -8.357609 -168.311994 -56.932977 3.661893 3.930010 101.386713 -3.201124 -10.007661 21.454555 -0.003081 0.000002 13.853404 2.027486 0.930211 17.741141 3.888102 2.162001 17.422476 3.900960 2.138449 7.554944 -7.514156 0.007234 -29.206258 -1.769343 -0.005866 -156.015017 -70.409504 -26.079955 11.623961 50.010727 41.611527 -64.991818 -14.543524 2.292389 -15.212407 -7.028164 33.239495 178.382876 72.139802 -0.236326 -8.391745 -49.665710 1.061871 -93.450293 2.011027 -2.599070 -11.628365 8.863344 -16.667075 
-152.620025 0.000000 40.534875 0.000000 -75.155130 0.000000 -12.083605 81.254738 -1.727438 80.154437 0.350904 175.101695 147.928483 -4.216795 176.811714 -125.069998 6.072074 -12.920942 79.210400 7.417221 -5.640095 21.454558 0.003107 0.000020 156.992349 -8.574800 -172.906922 -51.711232 3.954319 3.429530 103.164202 -2.654921 -8.801362 21.454555 -0.003082 0.000001 13.522575 1.476256 1.931241 17.084152 2.650814 4.060541 16.766525 2.675138 4.044476 5.922812 -6.935660 -1.243773 -28.054789 -2.149420 -1.198607 -154.927023 -71.559537 -27.173949 15.322956 46.469732 47.981567 -64.036206 -14.432724 2.247140 -17.506548 -3.468691 39.070550 167.373786 76.850475 -11.367194 -16.985265 -50.966906 7.475676 -100.964505 0.574531 -2.832770 -12.519590 5.522118 -19.070153 
-150.437928 0.000000 48.830169 0.000000 -76.647021 0.000000 -11.772128 83.163696 -1.590391 79.765103 -1.925535 174.739358 135.317727 -2.338196 176.851274 -117.623999 5.624690 -12.662015 78.929017 7.152653 -6.261255 21.454562 0.003109 0.000016 166.292362 -6.836801 -177.579673 -43.429112 3.630281 4.040826 99.591173 -3.179939 -6.511022 21.454551 -0.003093 0.000001 13.019777 0.606715 2.563549 16.046585 0.851558 5.186510 15.729852 0.882691 5.181285 5.137251 -6.453115 -2.486220 -26.533956 -1.514689 -2.803952 -152.130989 -72.525920 -30.021991 17.040373 41.746949 53.524665 -65.544865 -14.067622 2.281607 -17.623625 -3.233225 37.647511 160.988296 79.815398 -17.735718 -21.916122 -51.550658 10.047669 -107.819693 -0.873275 -3.033505 -12.863862 4.567174 -15.575311 
-148.349552 0.000000 57.302461 0.000000 -78.046032 0.000000 -11.370947 85.178146 -1.605787 78.577318 -4.474457 176.130527 126.169727 0.073396 177.532599 -104.016295 4.057355 -11.728849 78.179527 6.349232 -7.184165 21.454553 0.003095 0.000017 173.446357 -3.944001 179.783037 -36.252353 3.200821 5.270987 89.003669 -4.361013 -4.458024 21.454555 -0.003095 -0.000001 12.365994 -0.188866 2.796940 14.701733 -0.732049 5.547051 14.385219 -0.698714 5.551336 5.057945 -6.905032 -3.543594 -24.242407 0.528171 -4.888522 -152.147983 -73.307703 -29.982037 19.282059 36.999159 56.356130 -67.876917 -13.571641 2.341052 -18.156535 -3.973821 35.660158 161.290218 80.519830 -17.398075 -21.426594 -50.928394 7.519561 -114.790099 -1.716423 -3.273913 -11.879070 4.177339 -13.287439 
-146.355449 0.000000 65.936467 0.000000 -79.352659 0.000000 -10.990956 86.781029 -1.601042 77.774635 -6.378162 177.979359 122.353700 1.631810 179.695447 -85.529828 0.183243 -10.030715 77.261761 5.032104 -8.002816 21.454555 0.003113 0.000016 179.063586 -0.558503 179.751318 -32.522540 3.642526 5.216811 76.702874 -3.960064 -0.786307 21.454553 -0.003094 0.000003 11.968592 -0.776926 2.796825 13.881048 -1.884103 5.480588 13.564336 -1.851146 5.491807 4.903821 -7.945348 -4.099150 -22.196824 2.510716 -6.414045 -150.319951 -73.831114 -31.840949 20.820814 34.115746 56.048440 -70.625631 -12.750642 2.396888 -18.701126 -3.033315 36.938244 164.079695 80.282665 -14.581976 -18.227972 -49.630487 2.902987 -120.871699 -1.995596 -3.505397 -11.913598 2.633261 -15.746769 
-144.456168 0.000000 74.716898 0.000000 -80.568363 0.000000 -10.211241 87.715500 -1.331696 77.814504 -5.405352 178.764800 124.379234 -0.176105 -177.866964 -63.534146 -2.605112 -7.721830 78.112188 3.171361 -9.335228 21.454555 0.003106 0.000015 -176.983247 -0.739708 -179.567258 -34.450935 2.160594 4.198304 69.400425 -1.090634 5.764075 21.454555 -0.003085 -0.000002 11.784641 -0.816106 2.980022 13.507957 -1.974874 5.844834 13.191465 -1.939744 5.856583 5.333046 -8.748802 -3.969983 -21.421734 4.121673 -6.987675 -149.035042 -73.854590 -33.155996 21.442445 32.807243 54.209811 -73.232578 -12.230529 2.469642 -18.746704 -3.281840 36.550408 166.539123 80.046907 -12.097729 -14.025535 -48.275794 -2.747685 -124.084497 -1.865450 -3.641922 -12.038270 1.469335 -19.657107 
-142.652261 0.000000 83.628467 0.000000 -81.695416 0.000000 -9.541571 87.646927 -1.083771 78.324447 -4.334021 178.720715 130.024549 -2.111495 -176.999940 -40.656066 -2.978516 -6.661396 77.838461 2.202118 -10.119881 21.454555 0.003115 0.000018 -176.323546 -2.351497 178.156455 -43.571857 -0.156605 3.673184 67.355508 -0.200084 6.743264 21.454550 -0.003096 -0.000003 11.658338 -0.881094 3.054550 13.250865 -2.106522 5.988670 12.934431 -2.070511 6.001207 5.757878 -7.802527 -3.328540 -20.457567 4.421644 -6.236865 -147.979983 -73.630635 -34.244038 20.738497 32.786018 50.373953 -75.405179 -11.597893 2.517704 -18.954577 -3.373010 35.790331 172.917495 80.143500 -5.624009 -10.308932 -47.779014 -8.576699 -122.228598 -1.626279 -3.585070 -12.125410 1.701010 -21.335209 
-140.944278 0.000000 92.655886 0.000000 -82.736761 0.000000 -8.811143 87.000397 -1.076290 80.506958 -4.274721 178.278801 137.835376 -2.868494 -173.543017 -25.392371 -3.966816 -9.615501 76.939158 4.123301 -10.740992 21.454558 0.003116 0.000020 -176.550773 -2.911499 172.717220 -57.627583 1.058851 3.502930 71.382129 -1.329741 3.675004 21.454560 -0.003096 -0.000003 11.814424 -1.169392 2.769810 13.557072 -2.655509 5.384481 13.240134 -2.623142 5.400351 7.177441 -5.990488 -2.296471 -20.163876 4.139222 -4.730003 -147.208007 -73.055007 -35.053951 18.170521 33.421625 45.368261 -78.064848 -10.780440 2.574875 -18.682077 -3.992787 34.742300 175.563797 79.625799 -2.950973 -6.369344 -48.307479 -13.855747 -116.636408 -1.050451 -3.397053 -9.962425 0.987748 -23.375643 
